<?xml version="1.0" encoding="UTF-8"?>
<svg version="1.1" xmlns="http://www.w3.org/2000/svg" width="40" height="49">
<path d="M0 0 C13.2 0 26.4 0 40 0 C40.0825 5.81625 40.165 11.6325 40.25 17.625 C40.28641602 19.4498291 40.32283203 21.2746582 40.36035156 23.15478516 C40.37204414 24.616199 40.38223462 26.07762596 40.390625 27.5390625 C40.41108887 28.28567139 40.43155273 29.03228027 40.45263672 29.80151367 C40.45667859 35.90675764 38.50573629 39.47840462 34.1484375 43.86328125 C33.56320313 44.34152344 32.97796875 44.81976563 32.375 45.3125 C31.78460937 45.80363281 31.19421875 46.29476562 30.5859375 46.80078125 C25.43588961 50.69502929 18.11185538 49.76950088 12 49 C8.55088087 47.22675302 6.33673247 45.06660774 4 42 C3.31478271 41.14083984 2.62956543 40.28167969 1.92358398 39.39648438 C-0.4723675 35.16593772 -0.52098051 32.29498571 -0.390625 27.5390625 C-0.38659668 26.83740967 -0.38256836 26.13575684 -0.37841797 25.4128418 C-0.35764599 22.81662473 -0.30180106 20.22078335 -0.25 17.625 C-0.1675 11.80875 -0.085 5.9925 0 0 Z " fill="#120709" transform="translate(0,0)"/>
<path d="M0 0 C0.99773438 0.02320312 1.99546875 0.04640625 3.0234375 0.0703125 C4.52777344 0.09738281 4.52777344 0.09738281 6.0625 0.125 C6.83335938 0.14820312 7.60421875 0.17140625 8.3984375 0.1953125 C8.5233961 4.42698734 8.61340227 8.65764423 8.6730957 12.890625 C8.69801605 14.32603698 8.73196625 15.76132507 8.77563477 17.19628906 C9.03793358 26.04655975 8.89954566 33.75599508 3.3984375 41.1953125 C-0.40585684 44.77113104 -3.93788199 45.44182706 -9.1015625 45.6328125 C-14.65983895 45.38916203 -18.89045682 44.73697408 -23.1015625 40.7890625 C-26.3486113 36.87784463 -27.75022983 32.75340317 -28.08203125 27.69921875 C-27.1457399 22.81984677 -23.22722106 20.26433468 -19.6015625 17.1953125 C-19.2715625 16.5353125 -18.9415625 15.8753125 -18.6015625 15.1953125 C-17.9415625 15.1953125 -17.2815625 15.1953125 -16.6015625 15.1953125 C-12.6015625 21.6953125 -12.6015625 21.6953125 -12.6015625 26.1953125 C-13.2615625 26.1953125 -13.9215625 26.1953125 -14.6015625 26.1953125 C-14.6015625 27.5153125 -14.6015625 28.8353125 -14.6015625 30.1953125 C-15.2615625 30.1953125 -15.9215625 30.1953125 -16.6015625 30.1953125 C-16.6015625 32.1753125 -16.6015625 34.1553125 -16.6015625 36.1953125 C-15.9415625 36.1953125 -15.2815625 36.1953125 -14.6015625 36.1953125 C-14.6015625 37.1853125 -14.6015625 38.1753125 -14.6015625 39.1953125 C-11.6315625 39.1953125 -8.6615625 39.1953125 -5.6015625 39.1953125 C-5.6015625 38.2053125 -5.6015625 37.2153125 -5.6015625 36.1953125 C-4.9415625 36.1953125 -4.2815625 36.1953125 -3.6015625 36.1953125 C-3.6015625 34.2153125 -3.6015625 32.2353125 -3.6015625 30.1953125 C-4.2615625 30.1953125 -4.9215625 30.1953125 -5.6015625 30.1953125 C-6.2890625 28.0703125 -6.2890625 28.0703125 -6.6015625 25.1953125 C-6.1478125 24.3496875 -5.6940625 23.5040625 -5.2265625 22.6328125 C-2.88797602 17.68580264 -2.63540385 12.63531012 -2.6015625 7.1953125 C-2.9315625 6.8653125 -3.2615625 6.5353125 -3.6015625 6.1953125 C-4.2615625 6.1953125 -4.9215625 6.1953125 -5.6015625 6.1953125 C-4.84252152 2.40010759 -4.24028239 0.31833952 0 0 Z " fill="#E71C15" transform="translate(29.6015625,1.8046875)"/>
<path d="M0 0 C13.2 0 26.4 0 40 0 C40.0825 5.81625 40.165 11.6325 40.25 17.625 C40.28641602 19.4498291 40.32283203 21.2746582 40.36035156 23.15478516 C40.37204414 24.616199 40.38223462 26.07762596 40.390625 27.5390625 C40.41108887 28.28567139 40.43155273 29.03228027 40.45263672 29.80151367 C40.45667859 35.90675764 38.50573629 39.47840462 34.1484375 43.86328125 C33.56320313 44.34152344 32.97796875 44.81976563 32.375 45.3125 C31.78460937 45.80363281 31.19421875 46.29476562 30.5859375 46.80078125 C25.43588961 50.69502929 18.11185538 49.76950088 12 49 C8.55088087 47.22675302 6.33673247 45.06660774 4 42 C3.31478271 41.14083984 2.62956543 40.28167969 1.92358398 39.39648438 C-0.4723675 35.16593772 -0.52098051 32.29498571 -0.390625 27.5390625 C-0.38659668 26.83740967 -0.38256836 26.13575684 -0.37841797 25.4128418 C-0.35764599 22.81662473 -0.30180106 20.22078335 -0.25 17.625 C-0.1675 11.80875 -0.085 5.9925 0 0 Z M2 2 C1.938125 6.970625 1.87625 11.94125 1.8125 17.0625 C1.78518799 18.61718994 1.75787598 20.17187988 1.72973633 21.77368164 C1.72224365 23.01496826 1.71475098 24.25625488 1.70703125 25.53515625 C1.6913208 26.797229 1.67561035 28.05930176 1.65942383 29.35961914 C2.28173369 36.01142009 4.80326621 40.66938851 10 45 C15.7511298 47.7501208 21.92210242 48.0651225 28.09375 46.453125 C32.74328503 44.29149906 34.81261722 40.63595111 36.97460938 36.14697266 C39.01953015 29.87101343 38.50704232 23.40266966 38.3125 16.875 C38.209375 11.96625 38.10625 7.0575 38 2 C26.12 2 14.24 2 2 2 Z " fill="#61535D" transform="translate(0,0)"/>
<path d="M0 0 C8.25 0 16.5 0 25 0 C24.01 1.32 23.02 2.64 22 4 C21.34 4 20.68 4 20 4 C20 3.01 20 2.02 20 1 C15.6409923 4.48720616 15.05447817 7.72760915 14 13 C13.34 12.01 12.68 11.02 12 10 C11.67 11.65 11.34 13.3 11 15 C10.34 15 9.68 15 9 15 C8.34 16.32 7.68 17.64 7 19 C4.69 20.98 2.38 22.96 0 25 C0 16.75 0 8.5 0 0 Z " fill="#E81913" transform="translate(2,2)"/>
<path d="M0 0 C0.99773438 0.02320312 1.99546875 0.04640625 3.0234375 0.0703125 C4.52777344 0.09738281 4.52777344 0.09738281 6.0625 0.125 C6.83335938 0.14820312 7.60421875 0.17140625 8.3984375 0.1953125 C9.76783733 13.0270961 9.76783733 13.0270961 6.5703125 18.08984375 C2.85255822 21.80144281 -1.0552916 24.57898609 -5.6015625 27.1953125 C-5.9315625 26.5353125 -6.2615625 25.8753125 -6.6015625 25.1953125 C-6.1478125 24.4115625 -5.6940625 23.6278125 -5.2265625 22.8203125 C-2.96029018 17.76478193 -2.63586435 12.70933431 -2.6015625 7.1953125 C-2.9315625 6.8653125 -3.2615625 6.5353125 -3.6015625 6.1953125 C-4.2615625 6.1953125 -4.9215625 6.1953125 -5.6015625 6.1953125 C-4.84252152 2.40010759 -4.24028239 0.31833952 0 0 Z " fill="#FAF6F6" transform="translate(29.6015625,1.8046875)"/>
<path d="M0 0 C0.66 0 1.32 0 2 0 C6 6.5 6 6.5 6 11 C5.34 11 4.68 11 4 11 C4 12.32 4 13.64 4 15 C3.34 15 2.68 15 2 15 C2.2475 16.2375 2.495 17.475 2.75 18.75 C3.04296875 20.953125 3.04296875 20.953125 3 23 C1.0625 25.5 1.0625 25.5 -1 27 C-4.26581209 25.91139597 -5.34732637 24.8392319 -7.1171875 21.93359375 C-8.91849881 17.98824376 -9.75526395 14.30632952 -9 10 C-6.71322009 6.82801496 -3.96839713 4.51266811 -1 2 C-0.67 1.34 -0.34 0.68 0 0 Z " fill="#F5F3F3" transform="translate(11,17)"/>
<path d="M0 0 C0.33 0.99 0.66 1.98 1 3 C1.66 3 2.32 3 3 3 C3.33 2.01 3.66 1.02 4 0 C4.33 0.66 4.66 1.32 5 2 C5.99 2 6.98 2 8 2 C8.05406122 3.93719378 8.09282025 5.87481921 8.125 7.8125 C8.14820313 8.89144531 8.17140625 9.97039063 8.1953125 11.08203125 C8 14 8 14 6 17 C3.375 17.1875 3.375 17.1875 1 17 C-2.00077689 11.35853945 -2.45004005 7.25665429 -1 1 C-0.67 0.67 -0.34 0.34 0 0 Z " fill="#0C0608" transform="translate(19,7)"/>
<path d="M0 0 C0.66 0 1.32 0 2 0 C2 0.99 2 1.98 2 3 C2.66 3 3.32 3 4 3 C4 3.66 4 4.32 4 5 C5.65 4.67 7.3 4.34 9 4 C8.67 4.66 8.34 5.32 8 6 C5.35139573 6.59355614 2.70802678 6.74209269 0 7 C-0.33 6.34 -0.66 5.68 -1 5 C-1.22245393 6.60226955 -1.42746669 8.20696767 -1.625 9.8125 C-1.74101562 10.70582031 -1.85703125 11.59914063 -1.9765625 12.51953125 C-2.23500743 15.25690391 -2.23500743 15.25690391 0 18 C0 18.99 0 19.98 0 21 C1.32 21 2.64 21 4 21 C4 22.65 4 24.3 4 26 C1.03 26 -1.94 26 -5 26 C-4.34 25.67 -3.68 25.34 -3 25 C-4.90884692 20.45829004 -4.90884692 20.45829004 -7 16 C-7.04022391 13.6670134 -7.04320247 11.33293334 -7 9 C-6.34 8.67 -5.68 8.34 -5 8 C-4.67 8.66 -4.34 9.32 -4 10 C-3.71125 8.72125 -3.4225 7.4425 -3.125 6.125 C-2.45897517 3.17546145 -2.19797403 2.19797403 0 0 Z " fill="#5D3C3D" transform="translate(20,3)"/>
<path d="M0 0 C0.2475 0.53625 0.495 1.0725 0.75 1.625 C4.34781589 8.54972292 4.34781589 8.54972292 10.875 12.53125 C16.54700985 13.78242864 22.00919068 13.67545316 27.5 11.8125 C30.2872219 9.79176412 31.41318988 8.02249547 33 5 C34.6875 3.1875 34.6875 3.1875 36 2 C36.66 2.33 37.32 2.66 38 3 C34.77681721 8.41494708 30.73169127 13.13415436 25 16 C12.59563129 17.33445531 12.59563129 17.33445531 7.37109375 14.6484375 C3.49923844 11.31291129 0.57257105 7.39480888 -2 3 C-1.34 2.67 -0.68 2.34 0 2 C0 1.34 0 0.68 0 0 Z " fill="#663130" transform="translate(2,33)"/>
<path d="M0 0 C0.2475 0.53625 0.495 1.0725 0.75 1.625 C2.98609906 5.87358821 4.96811275 9.31207517 9 12 C9 12.66 9 13.32 9 14 C9.66 14 10.32 14 11 14 C10.67 14.66 10.34 15.32 10 16 C5.17514834 12.04174791 1.16589254 8.40839975 -2 3 C-1.34 2.67 -0.68 2.34 0 2 C0 1.34 0 0.68 0 0 Z " fill="#5B5559" transform="translate(2,33)"/>
<path d="M0 0 C0.33 0.99 0.66 1.98 1 3 C2.32 3 3.64 3 5 3 C5 4.65 5 6.3 5 8 C2.03 8 -0.94 8 -4 8 C-3.34 7.67 -2.68 7.34 -2 7 C-2 5.68 -2 4.36 -2 3 C-1.34 3 -0.68 3 0 3 C0 2.01 0 1.02 0 0 Z " fill="#565156" transform="translate(19,21)"/>
<path d="M0 0 C1.09603323 2.0459287 1.96660153 3.85805649 2.5 6.125 C2.89277065 8.22679483 2.89277065 8.22679483 5 10 C5 10.99 5 11.98 5 13 C4.01 13 3.02 13 2 13 C-1.18513349 9.10705907 -1.3785594 5.9212722 -1 1 C-0.67 0.67 -0.34 0.34 0 0 Z " fill="#110A0B" transform="translate(14,11)"/>
<path d="M0 0 C0.99 0 1.98 0 3 0 C3 0.66 3 1.32 3 2 C3.66 2 4.32 2 5 2 C5 3.32 5 4.64 5 6 C4.34 6 3.68 6 3 6 C3 6.66 3 7.32 3 8 C2.01 8 1.02 8 0 8 C0 5.36 0 2.72 0 0 Z " fill="#483E44" transform="translate(20,31)"/>
<path d="M0 0 C0.33 0 0.66 0 1 0 C1 3.63 1 7.26 1 11 C-0.32 11 -1.64 11 -3 11 C-3 8.36 -3 5.72 -3 3 C-2.34 3.66 -1.68 4.32 -1 5 C-0.67 3.35 -0.34 1.7 0 0 Z " fill="#3E3538" transform="translate(26,10)"/>
<path d="M0 0 C0.66 0.33 1.32 0.66 2 1 C-0.82522609 5.67248931 -3.67760044 8.65996398 -8 12 C-8 9 -8 9 -6.25 7.125 C-5.13625 6.073125 -5.13625 6.073125 -4 5 C-2.64843325 3.34808509 -1.31037934 1.68477344 0 0 Z " fill="#784E53" transform="translate(38,35)"/>
<path d="M0 0 C0.33 0 0.66 0 1 0 C1.33 6.27 1.66 12.54 2 19 C1.34 19 0.68 19 0 19 C-0.33 19.99 -0.66 20.98 -1 22 C-1.33 21.34 -1.66 20.68 -2 20 C-1.505 18.515 -1.505 18.515 -1 17 C-0.85596652 15.66636297 -0.75409577 14.32781954 -0.68359375 12.98828125 C-0.64169922 12.23095703 -0.59980469 11.47363281 -0.55664062 10.69335938 C-0.51732422 9.90767578 -0.47800781 9.12199219 -0.4375 8.3125 C-0.39431641 7.51521484 -0.35113281 6.71792969 -0.30664062 5.89648438 C-0.20072632 3.93118553 -0.09987449 1.96561504 0 0 Z " fill="#3C1110" transform="translate(38,16)"/>
<path d="M0 0 C0.99 0 1.98 0 3 0 C2.67 0.99 2.34 1.98 2 3 C2.39397335 5.63804589 2.39397335 5.63804589 3 8 C1.68 7.34 0.36 6.68 -1 6 C-0.67 4.02 -0.34 2.04 0 0 Z " fill="#544D52" transform="translate(16,31)"/>
<path d="M0 0 C0 3 0 3 -1.53125 4.60546875 C-2.1809375 5.12753906 -2.830625 5.64960938 -3.5 6.1875 C-4.1496875 6.71730469 -4.799375 7.24710938 -5.46875 7.79296875 C-5.9740625 8.19128906 -6.479375 8.58960938 -7 9 C-6.19095897 4.20719998 -3.74015409 2.86479887 0 0 Z " fill="#EF332C" transform="translate(32,22)"/>
</svg>
