<?xml version="1.0" encoding="UTF-8"?>
<svg version="1.1" xmlns="http://www.w3.org/2000/svg" width="24" height="36">
<path d="M0 0 C2.1875 2.4375 2.1875 2.4375 4 5 C4.66 5.33 5.32 5.66 6 6 C6 7.32 6 8.64 6 10 C6.50144531 10.48082031 7.00289062 10.96164062 7.51953125 11.45703125 C9 13 9 13 9.07421875 15.26171875 C8.94660156 16.06222656 8.81898437 16.86273437 8.6875 17.6875 C8.56761719 18.49574219 8.44773437 19.30398437 8.32421875 20.13671875 C8.21722656 20.75160156 8.11023438 21.36648437 8 22 C6.68 22.33 5.36 22.66 4 23 C4 26.3 4 29.6 4 33 C4.99 33 5.98 33 7 33 C7 33.99 7 34.98 7 36 C0.73 36 -5.54 36 -12 36 C-12 35.01 -12 34.02 -12 33 C-11.01 33 -10.02 33 -9 33 C-9.33 29.7 -9.66 26.4 -10 23 C-11.32 22.67 -12.64 22.34 -14 22 C-14.19491452 20.54263913 -14.38069358 19.08405407 -14.5625 17.625 C-14.66691406 16.81289063 -14.77132813 16.00078125 -14.87890625 15.1640625 C-15 13 -15 13 -14 11 C-13.01 10.67 -12.02 10.34 -11 10 C-11 8.68 -11 7.36 -11 6 C-10.34 6 -9.68 6 -9 6 C-8.8453125 5.071875 -8.8453125 5.071875 -8.6875 4.125 C-7.31135305 -0.12854513 -3.96650529 -0.67720822 0 0 Z " fill="#BA0202" transform="translate(15,0)"/>
<path d="M0 0 C5.28 0 10.56 0 16 0 C16 0.66 16 1.32 16 2 C15.01 2.495 15.01 2.495 14 3 C13.67 10.59 13.34 18.18 13 26 C9.7 26 6.4 26 3 26 C3 18.08 3 10.16 3 2 C2.01 2 1.02 2 0 2 C0 1.34 0 0.68 0 0 Z " fill="#FF0303" transform="translate(4,7)"/>
<path d="M0 0 C0 8.25 0 16.5 0 25 C-1.32 24.67 -2.64 24.34 -4 24 C-3.01 24 -2.02 24 -1 24 C-1.33 20.7 -1.66 17.4 -2 14 C-3.32 13.67 -4.64 13.34 -6 13 C-6.19491452 11.54263913 -6.38069358 10.08405407 -6.5625 8.625 C-6.66691406 7.81289063 -6.77132813 7.00078125 -6.87890625 6.1640625 C-7 4 -7 4 -6 2 C-3 0 -3 0 0 0 Z " fill="#850202" transform="translate(7,9)"/>
<path d="M0 0 C2.1875 2.4375 2.1875 2.4375 4 5 C4.66 5.33 5.32 5.66 6 6 C6 7.32 6 8.64 6 10 C7.4166747 11.7511573 7.4166747 11.7511573 9 13 C8.01 13.495 8.01 13.495 7 14 C7 13.34 7 12.68 7 12 C5.68 12 4.36 12 3 12 C3 11.01 3 10.02 3 9 C3.66 9 4.32 9 5 9 C5 8.34 5 7.68 5 7 C-0.28 7 -5.56 7 -11 7 C-10.34 6.67 -9.68 6.34 -9 6 C-8.7834375 5.0409375 -8.7834375 5.0409375 -8.5625 4.0625 C-7.39448201 -0.22023262 -3.84849578 -0.65706026 0 0 Z " fill="#6A0101" transform="translate(15,0)"/>
<path d="M0 0 C5.28 0 10.56 0 16 0 C16 0.66 16 1.32 16 2 C13.40483479 3.29758261 11.45816973 3.13269102 8.5625 3.125 C7.59441406 3.12757812 6.62632813 3.13015625 5.62890625 3.1328125 C3 3 3 3 0 2 C0 1.34 0 0.68 0 0 Z " fill="#E80303" transform="translate(4,7)"/>
<path d="M0 0 C0.99 0 1.98 0 3 0 C3 2.97 3 5.94 3 9 C2.01 9 1.02 9 0 9 C0 8.01 0 7.02 0 6 C-0.66 6 -1.32 6 -2 6 C-2 5.01 -2 4.02 -2 3 C-1.34 3 -0.68 3 0 3 C0 2.01 0 1.02 0 0 Z " fill="#F20303" transform="translate(3,12)"/>
<path d="M0 0 C1.65 0 3.3 0 5 0 C4.01 0.33 3.02 0.66 2 1 C2 1.99 2 2.98 2 4 C1.34 4 0.68 4 0 4 C0 4.99 0 5.98 0 7 C0.66 7 1.32 7 2 7 C2.66 8.65 3.32 10.3 4 12 C2.68 11.67 1.36 11.34 0 11 C-0.19491452 9.54263913 -0.38069358 8.08405407 -0.5625 6.625 C-0.66691406 5.81289063 -0.77132813 5.00078125 -0.87890625 4.1640625 C-1 2 -1 2 0 0 Z " fill="#4A0101" transform="translate(1,11)"/>
<path d="M0 0 C1.98 0.66 3.96 1.32 6 2 C6 2.66 6 3.32 6 4 C3.03 4 0.06 4 -3 4 C-2.01 2.68 -1.02 1.36 0 0 Z " fill="#FC0303" transform="translate(11,2)"/>
<path d="M0 0 C0.33 0.66 0.66 1.32 1 2 C1.66 2 2.32 2 3 2 C3 3.65 3 5.3 3 7 C2.34 7 1.68 7 1 7 C0.67 7.66 0.34 8.32 0 9 C0 6.03 0 3.06 0 0 Z " fill="#B80202" transform="translate(21,12)"/>
</svg>
